<svg width="46" height="50" viewBox="0 0 46 50" fill="none" xmlns="http://www.w3.org/2000/svg">
<path d="M25.736 19.1667C27.0193 19.1667 28.0693 18.1167 28.0693 16.8333V12.1667H32.736C34.0193 12.1667 35.0693 11.1167 35.0693 9.83333C35.0693 8.55 34.0193 7.5 32.736 7.5H28.0693V2.83333C28.0693 1.55 27.0193 0.5 25.736 0.5C24.4527 0.5 23.4027 1.55 23.4027 2.83333V7.5H18.736C17.4527 7.5 16.4027 8.55 16.4027 9.83333C16.4027 11.1167 17.4527 12.1667 18.736 12.1667H23.4027V16.8333C23.4027 18.1167 24.4527 19.1667 25.736 19.1667ZM14.0693 40.1667C11.5027 40.1667 9.426 42.2667 9.426 44.8333C9.426 47.4 11.5027 49.5 14.0693 49.5C16.636 49.5 18.736 47.4 18.736 44.8333C18.736 42.2667 16.636 40.1667 14.0693 40.1667ZM37.4027 40.1667C34.836 40.1667 32.7593 42.2667 32.7593 44.8333C32.7593 47.4 34.836 49.5 37.4027 49.5C39.9693 49.5 42.0693 47.4 42.0693 44.8333C42.0693 42.2667 39.9693 40.1667 37.4027 40.1667ZM16.636 28.5H34.0193C35.7693 28.5 37.3093 27.5433 38.1027 26.0967L45.6627 11.77C46.246 10.65 45.8493 9.25 44.7293 8.64333C43.586 8.01333 42.1627 8.45667 41.556 9.6L34.0193 23.8333H17.6393L7.69934 2.83333H2.40267C1.11934 2.83333 0.0693359 3.88333 0.0693359 5.16667C0.0693359 6.45 1.11934 7.5 2.40267 7.5H4.736L13.136 25.21L9.986 30.9033C8.28267 34.03 10.5227 37.8333 14.0693 37.8333H39.736C41.0193 37.8333 42.0693 36.7833 42.0693 35.5C42.0693 34.2167 41.0193 33.1667 39.736 33.1667H14.0693L16.636 28.5Z" fill="#98A2B3"/>
</svg>
