<svg width="30" height="23" viewBox="0 0 30 23" fill="none" xmlns="http://www.w3.org/2000/svg">
<g clip-path="url(#clip0_572_17061)">
<path d="M3.63548 0.741943C1.70645 0.741943 0 2.44839 0 4.30323C0 5.34194 0 9.49678 0 13.5774C0.370968 13.8 2.00323 14.3194 2.67097 14.3936C4.15484 14.4678 5.04516 14.0226 5.19355 12.8355V8.30969H8.38387V12.6871C8.23548 15.2097 6.00968 15.729 2.59677 15.5807C1.78065 15.5807 0.593548 15.3581 0 15.2097C0 19.2903 0 23 0 23C0 23 4.22903 23 5.63871 23C7.19677 23 9.12581 21.5903 9.12581 19.3645C9.12581 15.729 9.12581 0.741943 9.12581 0.741943C9.12581 0.741943 5.04516 0.741943 3.63548 0.741943Z" fill="white"/>
<path d="M13.8743 0.741918C12.0194 0.741918 10.313 2.44837 10.313 4.30321C10.313 4.97095 10.313 6.89998 10.313 9.19998C11.4259 8.30966 13.2807 7.8645 15.5807 8.08708C16.9162 8.16127 17.8807 8.38385 18.4001 8.53224V10.0903C17.8065 9.79353 16.6936 9.34837 15.7291 9.27418C13.5775 9.12579 12.3904 10.1645 12.3904 11.7968C12.3904 13.2806 13.2807 14.5419 15.7291 14.3935C16.5452 14.3193 17.8807 13.8742 18.4001 13.5774V15.0613C17.8807 15.2097 16.3969 15.5806 14.9872 15.5806C12.8356 15.5806 11.3517 15.1355 10.3872 14.3935C10.3872 18.771 10.3872 22.9258 10.3872 22.9258C10.3872 22.9258 14.6162 22.9258 16.0259 22.9258C17.584 22.9258 19.513 21.5161 19.513 19.2903C19.513 15.6548 19.513 0.667725 19.513 0.667725C19.513 0.667725 15.3581 0.741918 13.8743 0.741918Z" fill="white"/>
<path d="M24.5581 12.3161C23.9645 12.3161 22.629 12.3161 22.3323 12.3161V14.2451H24.5581C25.0032 14.2451 25.5226 13.8742 25.5226 13.2064C25.5226 12.6871 25.0032 12.3161 24.5581 12.3161Z" fill="white"/>
<path d="M25.2258 10.3129C25.2258 9.71936 24.7807 9.34839 24.3355 9.34839C23.6678 9.34839 22.5549 9.34839 22.3323 9.34839V11.129H24.4097C24.7807 11.2032 25.2258 10.9065 25.2258 10.3129Z" fill="white"/>
<path d="M24.1128 0.741943C22.258 0.741943 20.5515 2.4484 20.5515 4.30323C20.5515 4.89678 20.5515 6.38065 20.5515 8.23549H25.8934C26.9322 8.23549 28.1934 8.68065 28.1934 10.0161C28.1934 10.6839 27.8225 11.5 26.487 11.7226C27.2289 11.7226 28.6386 12.1677 28.6386 13.5774C28.6386 14.9871 27.1547 15.3581 26.4128 15.3581H20.5515C20.5515 19.3645 20.5515 22.9258 20.5515 22.9258C20.5515 22.9258 24.7805 22.9258 26.1902 22.9258C27.7483 22.9258 29.6773 21.5161 29.6773 19.2903C29.6773 15.729 29.6773 0.741943 29.6773 0.741943C29.6773 0.741943 25.5967 0.741943 24.1128 0.741943Z" fill="white"/>
</g>
<defs>
<clipPath id="clip0_572_17061">
<rect width="30" height="23" fill="white"/>
</clipPath>
</defs>
</svg>
