<svg width="55" height="17" viewBox="0 0 55 17" fill="none" xmlns="http://www.w3.org/2000/svg">
<g clip-path="url(#clip0_572_17059)">
<path d="M19.21 16.6034L21.9866 0.453369H26.35L23.63 16.6034H19.21Z" fill="white"/>
<path d="M39.5532 0.850044C38.7032 0.510044 37.3432 0.170044 35.5865 0.170044C31.2232 0.170044 28.1632 2.38004 28.1632 5.49671C28.1632 7.82004 30.3732 9.12338 32.0165 9.86004C33.7165 10.6534 34.2832 11.1634 34.2832 11.8434C34.2832 12.92 32.9232 13.43 31.6765 13.43C29.9199 13.43 28.9565 13.2034 27.5399 12.58L26.9732 12.2967L26.3499 15.9234C27.3699 16.3767 29.2965 16.7734 31.2232 16.7734C35.8699 16.7734 38.8732 14.62 38.8732 11.2767C38.8732 9.46338 37.7399 8.04671 35.1899 6.91338C33.6599 6.17671 32.6965 5.66671 32.6965 4.93004C32.6965 4.25004 33.4899 3.57004 35.1899 3.57004C36.6065 3.57004 37.6832 3.85338 38.4765 4.19338L38.8732 4.36338L39.5532 0.850044Z" fill="white"/>
<path d="M50.8298 0.453369H47.4298C46.3532 0.453369 45.6165 0.736702 45.1065 1.81337L38.5898 16.6034H43.1798C43.1798 16.6034 43.9165 14.62 44.0865 14.1667C44.5965 14.1667 49.0732 14.1667 49.6965 14.1667C49.8098 14.7334 50.2065 16.6034 50.2065 16.6034H54.3998L50.8298 0.453369ZM45.4465 10.88C45.7865 9.97337 47.2032 6.3467 47.2032 6.3467C47.2032 6.40337 47.5432 5.44004 47.7698 4.8167L48.0532 6.23337C48.0532 6.23337 48.9032 10.0867 49.0732 10.88H45.4465Z" fill="white"/>
<path d="M15.5267 0.453369L11.22 11.4467L10.7667 9.2367C9.97337 6.6867 7.48004 3.85337 4.70337 2.49337L8.61337 16.6034H13.26L20.1734 0.453369H15.5267Z" fill="white"/>
<path d="M7.25328 0.453369H0.169948L0.113281 0.793369C5.60995 2.15337 9.23661 5.3267 10.7666 9.2367L9.23661 1.81337C8.95328 0.793369 8.21661 0.510036 7.25328 0.453369Z" fill="#D8D8D8"/>
</g>
<defs>
<clipPath id="clip0_572_17059">
<rect width="55" height="17" fill="white"/>
</clipPath>
</defs>
</svg>
