<svg width="30" height="30" viewBox="0 0 30 30" fill="none" xmlns="http://www.w3.org/2000/svg">
<path d="M13.232 1.28966C14.2854 0.521243 15.7146 0.521243 16.768 1.28966L18.1474 2.29586C18.6623 2.67152 19.2836 2.87337 19.921 2.87216L21.6284 2.86891C22.9323 2.86643 24.0885 3.70645 24.4891 4.94729L25.0136 6.5721C25.2094 7.17872 25.5934 7.70719 26.1098 8.08089L27.493 9.08183C28.5493 9.84623 28.9909 11.2054 28.5856 12.4447L28.0549 14.0675C27.8568 14.6734 27.8568 15.3266 28.0549 15.9325L28.5856 17.5553C28.9909 18.7946 28.5493 20.1538 27.493 20.9182L26.1098 21.9191C25.5934 22.2928 25.2094 22.8213 25.0136 23.4279L24.4891 25.0527C24.0885 26.2935 22.9323 27.1336 21.6284 27.1311L19.921 27.1278C19.2836 27.1266 18.6623 27.3285 18.1474 27.7041L16.768 28.7103C15.7146 29.4788 14.2854 29.4788 13.232 28.7103L11.8526 27.7041C11.3377 27.3285 10.7164 27.1266 10.079 27.1278L8.37158 27.1311C7.0677 27.1336 5.9115 26.2935 5.51094 25.0527L4.98643 23.4279C4.7906 22.8213 4.40664 22.2928 3.89023 21.9191L2.50702 20.9182C1.4507 20.1538 1.00907 18.7946 1.41436 17.5553L1.94505 15.9325C2.14319 15.3266 2.14319 14.6734 1.94505 14.0675L1.41436 12.4447C1.00907 11.2054 1.4507 9.84623 2.50702 9.08183L3.89023 8.08089C4.40664 7.70719 4.7906 7.17872 4.98643 6.5721L5.51094 4.94729C5.9115 3.70645 7.0677 2.86643 8.37158 2.86891L10.079 2.87216C10.7164 2.87337 11.3377 2.67152 11.8526 2.29586L13.232 1.28966Z" fill="white"/>
<path d="M15.5 5L16.2884 10.5221L18.7447 5.51391L17.7881 11.0093L21.6717 7.00532L19.0638 11.9362L23.9947 9.32825L19.9907 13.2119L25.4861 12.2553L20.4779 14.7116L26 15.5L20.4779 16.2884L25.4861 18.7447L19.9907 17.7881L23.9947 21.6717L19.0638 19.0638L21.6717 23.9947L17.7881 19.9907L18.7447 25.4861L16.2884 20.4779L15.5 26L14.7116 20.4779L12.2553 25.4861L13.2119 19.9907L9.32825 23.9947L11.9362 19.0638L7.00532 21.6717L11.0093 17.7881L5.51391 18.7447L10.5221 16.2884L5 15.5L10.5221 14.7116L5.51391 12.2553L11.0093 13.2119L7.00532 9.32825L11.9362 11.9362L9.32825 7.00532L13.2119 11.0093L12.2553 5.51391L14.7116 10.5221L15.5 5Z" fill="#F9F9F9"/>
<circle cx="15" cy="15" r="6.5" fill="#D8D8D8" stroke="#D8D8D8"/>
<path d="M14.0367 18C14.1651 18 14.2661 18 14.4312 17.9231C15 17.6106 16.922 12.6927 18.9495 11.1784C18.9633 11.1688 18.9771 11.1544 18.9862 11.1399C19 11.1207 19 11.1015 19 11.1015C19 11.1015 19 11.0005 18.7018 11.0005C16.8991 10.9476 15.0229 14.9137 14.0367 16.4809C14.0229 16.5001 13.9587 16.4809 13.9587 16.4809C13.9587 16.4809 13.2982 15.6636 12.7248 15.3512C12.711 15.3464 12.6468 15.3223 12.578 15.3271C12.5321 15.3271 12.2661 15.3848 12.1422 15.5194C11.9954 15.6829 12 15.7742 12 15.9713C12 15.9857 12.0092 16.053 12.0275 16.0867C12.1697 16.3463 12.8074 17.2693 13.3349 17.7789C13.4129 17.8414 13.5367 18 14.0367 18Z" fill="white"/>
<circle cx="15" cy="15" r="8" stroke="#D8D8D8" stroke-width="0.25"/>
<path d="M5.99433 13.4359L3.82955 13.1638L3.94842 12.2296C3.96886 12.069 4.01845 11.9324 4.09721 11.8199C4.17596 11.7074 4.27702 11.6249 4.4004 11.5724C4.52378 11.5199 4.66228 11.5033 4.8159 11.5226C4.97093 11.5421 5.10078 11.5935 5.20545 11.6768C5.31021 11.7594 5.38535 11.8665 5.43088 11.9982C5.4765 12.1292 5.48882 12.2772 5.46785 12.442L5.39685 13L4.94021 12.9426L4.99615 12.503C5.00494 12.434 5.00044 12.3736 4.98267 12.322C4.96428 12.2696 4.93419 12.2275 4.89241 12.1958C4.85072 12.1633 4.79922 12.1433 4.73791 12.1355C4.6759 12.1278 4.62134 12.1345 4.57425 12.1558C4.52653 12.1763 4.48791 12.2097 4.45838 12.2561C4.42824 12.3017 4.40877 12.359 4.39999 12.4281L4.37363 12.6352L6.0691 12.8483L5.99433 13.4359Z" fill="#D8D8D8"/>
<path d="M6.27675 8.59169L6.01508 9.13257C5.96761 9.11665 5.92127 9.10895 5.87609 9.10948C5.83121 9.10937 5.78845 9.11791 5.74781 9.13511C5.70683 9.15138 5.66943 9.17655 5.6356 9.21062C5.60113 9.2444 5.57152 9.28687 5.54677 9.33802C5.50347 9.42752 5.48897 9.51289 5.50329 9.5941C5.51791 9.67467 5.55887 9.74887 5.62617 9.81669C5.69378 9.88388 5.78559 9.9426 5.90159 9.99285C6.02411 10.0459 6.13449 10.0744 6.23272 10.0783C6.33061 10.0813 6.41525 10.0611 6.48666 10.0178C6.55741 9.9742 6.61366 9.90925 6.65542 9.82294C6.67923 9.77371 6.69438 9.72691 6.70087 9.68255C6.7067 9.6379 6.70452 9.59597 6.69433 9.55675C6.68413 9.51754 6.66642 9.48164 6.64119 9.44905C6.61562 9.41555 6.58288 9.38628 6.54296 9.36126L6.80854 8.82207C6.89017 8.86517 6.96523 8.92591 7.03372 9.0043C7.10157 9.08241 7.15469 9.17464 7.19311 9.28099C7.23118 9.38642 7.24641 9.50322 7.2388 9.63138C7.23118 9.75955 7.19258 9.89556 7.12298 10.0394C7.03576 10.2197 6.91808 10.3644 6.76994 10.4734C6.62211 10.5818 6.45151 10.6444 6.25815 10.6612C6.0651 10.6773 5.85779 10.6374 5.63621 10.5414C5.41333 10.4448 5.24605 10.3213 5.13438 10.1709C5.02206 10.0201 4.96144 9.85623 4.95252 9.67914C4.94295 9.50177 4.98085 9.32485 5.06621 9.14839C5.12622 9.02436 5.1987 8.91772 5.28366 8.82847C5.36861 8.73922 5.46335 8.66968 5.56787 8.61984C5.67174 8.56971 5.78349 8.54157 5.90314 8.5354C6.02279 8.52924 6.14733 8.548 6.27675 8.59169Z" fill="#D8D8D8"/>
<path d="M6.80573 6.98805L8.50471 8.35692L8.10348 8.79265L6.40449 7.42379L6.80573 6.98805Z" fill="#D8D8D8"/>
<path d="M10.1076 5.9244L10.3706 6.2811L9.50681 6.82872L9.2438 6.47202L10.1076 5.9244Z" fill="#D8D8D8"/>
<path d="M12.6552 6.21917L11.8513 6.46075L11.1112 4.40828L11.907 4.16915C12.1219 4.10457 12.3224 4.08986 12.5085 4.12503C12.695 4.15933 12.8585 4.24054 12.9989 4.36866C13.1398 4.4959 13.2488 4.66643 13.3259 4.88023C13.403 5.09402 13.4267 5.29053 13.3971 5.46975C13.3672 5.64829 13.2893 5.80206 13.1631 5.93104C13.0368 6.05936 12.8675 6.1554 12.6552 6.21917ZM12.248 5.81726L12.4643 5.75227C12.5677 5.7212 12.6498 5.67837 12.7108 5.62376C12.7725 5.56895 12.8079 5.49573 12.8171 5.40411C12.8269 5.31229 12.8061 5.19489 12.7545 5.05191C12.703 4.90893 12.643 4.80328 12.5747 4.73496C12.507 4.66644 12.4295 4.62715 12.3422 4.6171C12.2556 4.60684 12.1578 4.61807 12.049 4.65077L11.849 4.71086L12.248 5.81726Z" fill="#D8D8D8"/>
<path d="M15.6135 4.49749C15.6061 4.42652 15.5781 4.37131 15.5295 4.33184C15.4817 4.29237 15.4098 4.27293 15.3139 4.27353C15.2528 4.27391 15.2029 4.28167 15.1643 4.29683C15.1262 4.31126 15.0983 4.33096 15.0805 4.35593C15.0626 4.38089 15.0537 4.40935 15.0538 4.44131C15.053 4.46759 15.0582 4.49135 15.0694 4.51258C15.0812 4.5331 15.0995 4.55181 15.124 4.5687C15.1486 4.58488 15.1798 4.5996 15.2178 4.61285C15.2558 4.62611 15.3008 4.6379 15.3529 4.64823L15.5328 4.68546C15.6542 4.71027 15.7584 4.74336 15.8453 4.78472C15.9323 4.82608 16.0038 4.87499 16.0599 4.93145C16.1159 4.9872 16.1576 5.05014 16.1849 5.12027C16.2129 5.1904 16.2283 5.267 16.231 5.35007C16.2338 5.4935 16.2009 5.61513 16.1323 5.71497C16.0638 5.81482 15.9641 5.89106 15.8332 5.94371C15.7031 5.99636 15.5457 6.02325 15.3611 6.0244C15.1714 6.02557 15.0053 5.99855 14.8626 5.94334C14.7206 5.88812 14.6091 5.80253 14.5281 5.68657C14.4478 5.5699 14.4051 5.42033 14.3999 5.23786L14.9624 5.23437C14.9676 5.30109 14.9856 5.35708 15.0166 5.40234C15.0475 5.44759 15.0903 5.48177 15.1448 5.50486C15.2001 5.52795 15.2654 5.53927 15.3406 5.5388C15.4039 5.53841 15.4566 5.53027 15.4988 5.51439C15.541 5.4985 15.5728 5.47665 15.5942 5.44882C15.6155 5.42099 15.6261 5.38933 15.6259 5.35382C15.6244 5.32045 15.6127 5.29141 15.5908 5.26669C15.5695 5.24126 15.5349 5.21875 15.4868 5.19917C15.4387 5.17887 15.374 5.1601 15.2926 5.14285L15.0741 5.09734C14.8799 5.05664 14.7259 4.98765 14.612 4.89036C14.4987 4.79236 14.4404 4.65815 14.4369 4.48774C14.4328 4.34929 14.4668 4.22801 14.5388 4.12388C14.6116 4.01904 14.7136 3.9371 14.845 3.87806C14.9771 3.81901 15.1294 3.78895 15.302 3.78788C15.4782 3.78679 15.6312 3.81531 15.7612 3.87344C15.8912 3.93158 15.9923 4.01403 16.0645 4.12081C16.1375 4.22688 16.176 4.35127 16.1802 4.49398L15.6135 4.49749Z" fill="#D8D8D8"/>
<path d="M18.7136 5.1522C18.7292 5.08281 18.72 5.02263 18.686 4.97164C18.6527 4.92086 18.5899 4.88237 18.4977 4.85618C18.4389 4.8395 18.3886 4.83295 18.3466 4.83653C18.3055 4.83962 18.2724 4.85051 18.2472 4.86921C18.2221 4.88791 18.2045 4.91243 18.1943 4.94276C18.1852 4.96747 18.1825 4.99145 18.1865 5.01471C18.1913 5.03749 18.2028 5.06031 18.221 5.08319C18.2394 5.10539 18.2647 5.12807 18.2969 5.15124C18.3291 5.17441 18.3686 5.19816 18.4153 5.22249L18.5761 5.308C18.6847 5.3654 18.7741 5.42584 18.8444 5.48933C18.9146 5.55283 18.9676 5.61917 19.0034 5.68838C19.0394 5.7569 19.0593 5.82823 19.063 5.90237C19.0675 5.9767 19.0577 6.05365 19.0338 6.13321C18.9906 6.27004 18.9201 6.37624 18.8223 6.45181C18.7245 6.52738 18.6044 6.57189 18.462 6.58533C18.3202 6.59896 18.1605 6.58056 17.9829 6.53013C17.8005 6.47834 17.6496 6.40635 17.5303 6.31416C17.4116 6.22217 17.332 6.10988 17.2913 5.9773C17.2516 5.84423 17.2584 5.69043 17.3118 5.5159L17.8529 5.66953C17.8365 5.73426 17.836 5.79241 17.8512 5.84397C17.8664 5.89553 17.8965 5.93987 17.9415 5.977C17.9872 6.01432 18.0462 6.04326 18.1186 6.06382C18.1794 6.08108 18.2327 6.08807 18.2783 6.08479C18.3239 6.0815 18.3614 6.06964 18.3908 6.0492C18.4202 6.02875 18.4405 6.00167 18.4517 5.96795C18.4609 5.93587 18.4589 5.90505 18.4458 5.87549C18.4336 5.84545 18.4075 5.81443 18.3676 5.78244C18.3279 5.74977 18.2718 5.7139 18.1992 5.67483L18.004 5.57071C17.8306 5.47793 17.7047 5.3695 17.6265 5.24544C17.5492 5.12089 17.5361 4.97731 17.5873 4.8147C17.6276 4.68223 17.699 4.57666 17.8015 4.49799C17.9048 4.41884 18.029 4.36958 18.174 4.35023C18.3197 4.33107 18.4756 4.34506 18.6416 4.3922C18.8111 4.4403 18.9489 4.51006 19.0551 4.60147C19.1613 4.69288 19.232 4.79931 19.2672 4.92074C19.3032 5.0417 19.3005 5.17045 19.2589 5.30699L18.7136 5.1522Z" fill="#D8D8D8"/>
<path d="M22.0403 9.20448C21.9226 9.07923 21.8409 8.94934 21.7952 8.81481C21.7505 8.68035 21.7425 8.55245 21.7714 8.43113C21.8003 8.3098 21.8671 8.20604 21.9718 8.11983L22.3804 8.55457C22.3484 8.58155 22.3279 8.61465 22.3191 8.65384C22.3113 8.69311 22.3153 8.73462 22.3311 8.77837C22.347 8.82213 22.3743 8.8647 22.4133 8.90611C22.4507 8.94596 22.4912 8.97509 22.5348 8.99352C22.5789 9.01149 22.6225 9.01802 22.6655 9.01312C22.7085 9.00822 22.7471 8.99137 22.7813 8.96259C22.816 8.9353 22.837 8.90079 22.8445 8.85907C22.8524 8.81787 22.847 8.77336 22.8283 8.72554C22.8096 8.67771 22.7784 8.63051 22.7346 8.58393L22.5829 8.42246L22.9 8.16405L23.0518 8.32553C23.0922 8.36848 23.1351 8.40021 23.1806 8.4207C23.2266 8.44171 23.2713 8.4505 23.3148 8.44708C23.3587 8.44418 23.3975 8.42856 23.4312 8.40023C23.4647 8.37383 23.4868 8.34255 23.4975 8.30639C23.5083 8.27022 23.5077 8.23234 23.4957 8.19273C23.4843 8.15363 23.4615 8.11597 23.4275 8.07974C23.3905 8.04041 23.35 8.01127 23.3059 7.99233C23.2624 7.97391 23.2191 7.96667 23.1761 7.97061C23.1332 7.97455 23.0944 7.99016 23.0598 8.01746L22.6716 7.60446C22.7756 7.52064 22.8921 7.47282 23.021 7.46101C23.1503 7.44971 23.2811 7.47199 23.4134 7.52785C23.5456 7.5837 23.6681 7.67166 23.7809 7.79173C23.8914 7.90921 23.9677 8.03025 24.0099 8.15484C24.0526 8.27996 24.0607 8.39816 24.034 8.50944C24.0084 8.62079 23.9477 8.71501 23.8519 8.79211C23.7582 8.87031 23.6519 8.90303 23.533 8.89027C23.4145 8.87803 23.3053 8.82904 23.2053 8.74331L23.192 8.75407C23.2978 8.89454 23.3467 9.02515 23.3386 9.14592C23.3312 9.26624 23.2752 9.36806 23.1707 9.45136C23.0721 9.53263 22.958 9.57624 22.8284 9.58219C22.6994 9.58865 22.5662 9.55966 22.4288 9.49522C22.2919 9.43129 22.1624 9.33438 22.0403 9.20448Z" fill="#D8D8D8"/>
<path d="M23.2246 10.9788C23.1873 10.9053 23.1818 10.831 23.2079 10.7557C23.2351 10.6807 23.2869 10.6271 23.3636 10.5949C23.4377 10.5623 23.5143 10.5606 23.5935 10.5898C23.673 10.6196 23.7314 10.6713 23.7687 10.7447C23.8041 10.8144 23.8089 10.8872 23.783 10.9631C23.7575 11.0397 23.7077 11.0943 23.6336 11.1269C23.5824 11.1482 23.5295 11.1551 23.4749 11.1477C23.4213 11.1407 23.3719 11.1226 23.3269 11.0934C23.2825 11.0639 23.2484 11.0257 23.2246 10.9788Z" fill="#D8D8D8"/>
<path d="M23.8933 12.699L24.3154 12.6403L25.1238 13.3492C25.1775 13.3962 25.227 13.4359 25.2724 13.4683C25.3186 13.5013 25.3642 13.525 25.4093 13.5395C25.4545 13.5548 25.5024 13.5589 25.5531 13.5518C25.6086 13.5441 25.654 13.5256 25.6892 13.4964C25.7245 13.4678 25.7491 13.4314 25.7629 13.3872C25.7774 13.3429 25.78 13.2939 25.7705 13.24C25.7609 13.1861 25.7416 13.1401 25.7126 13.1019C25.6836 13.0643 25.646 13.0373 25.5999 13.0208C25.5537 13.0043 25.5004 13.0002 25.4399 13.0086L25.3421 12.4547C25.4941 12.4336 25.6309 12.4493 25.7526 12.5019C25.8743 12.5545 25.9756 12.6386 26.0566 12.7542C26.1375 12.8698 26.1927 13.0108 26.2221 13.1772C26.2524 13.3493 26.251 13.5021 26.2176 13.6358C26.1851 13.77 26.1249 13.8783 26.0371 13.9607C25.9495 14.0438 25.8384 14.0947 25.7041 14.1134C25.6211 14.1249 25.5354 14.1193 25.447 14.0964C25.3594 14.0735 25.2581 14.0245 25.1433 13.9495C25.0284 13.8744 24.8879 13.7646 24.7219 13.62L24.5175 13.442L24.5048 13.4438L24.6529 14.2831L24.1844 14.3482L23.8933 12.699Z" fill="#D8D8D8"/>
<path d="M6.89601 20.7694L6.71717 20.1958C6.76336 20.1769 6.80304 20.1527 6.83619 20.123C6.86955 20.094 6.89538 20.0599 6.91366 20.0207C6.93284 19.982 6.94323 19.939 6.94482 19.8916C6.9471 19.844 6.93978 19.7931 6.92287 19.7389C6.89328 19.6439 6.84517 19.5708 6.77856 19.5194C6.71216 19.4687 6.63062 19.4398 6.53394 19.4327C6.43747 19.4263 6.32889 19.442 6.2082 19.4796C6.08073 19.5193 5.97922 19.5696 5.90368 19.6303C5.82903 19.6916 5.78015 19.7615 5.75705 19.8401C5.73463 19.9185 5.73769 20.0035 5.76623 20.095C5.78251 20.1472 5.80353 20.192 5.82931 20.2293C5.85577 20.2665 5.8863 20.2964 5.9209 20.3191C5.9555 20.3418 5.99339 20.3571 6.03456 20.3651C6.07663 20.3736 6.12109 20.3742 6.16796 20.367L6.34273 20.9419C6.25248 20.9626 6.15492 20.9659 6.05007 20.9517C5.94589 20.9373 5.8429 20.9028 5.74108 20.8483C5.64015 20.7942 5.54832 20.7168 5.4656 20.6161C5.38288 20.5155 5.31773 20.3888 5.27017 20.2363C5.21055 20.0451 5.19809 19.8607 5.23278 19.6833C5.26768 19.5065 5.35106 19.3492 5.48292 19.2114C5.61498 19.0742 5.79628 18.9697 6.02682 18.8978C6.25871 18.8255 6.46793 18.8094 6.6545 18.8494C6.84174 18.8893 6.99972 18.9724 7.12844 19.099C7.25783 19.2253 7.35171 19.382 7.41005 19.5691C7.45106 19.7006 7.47083 19.8273 7.46935 19.949C7.46787 20.0707 7.44556 20.1841 7.4024 20.289C7.35992 20.3938 7.29643 20.4872 7.21194 20.5694C7.12744 20.6515 7.02213 20.7182 6.89601 20.7694Z" fill="#D8D8D8"/>
<path d="M6.69908 22.6744L8.40247 21.311L9.38506 22.5386L9.01245 22.8369L8.39999 22.0717L8.10722 22.306L8.66908 23.008L8.29647 23.3062L7.73461 22.6042L7.44184 22.8386L8.05163 23.6004L7.67901 23.8987L6.69908 22.6744Z" fill="#D8D8D8"/>
<path d="M10.3344 23.7368L10.5837 23.3298L12.2007 24.3205L11.9514 24.7274L11.3918 24.3846L10.5013 25.838L10.0035 25.533L10.894 24.0796L10.3344 23.7368Z" fill="#D8D8D8"/>
<path d="M13.6131 24.5078L13.1153 26.6321L12.5386 26.497L13.0364 24.3727L13.6131 24.5078Z" fill="#D8D8D8"/>
<path d="M15.8283 26.7519L15.6337 24.5787L17.1617 24.4419L17.2042 24.9173L16.2662 25.0013L16.2997 25.3748L17.1443 25.2992L17.1869 25.7745L16.3422 25.8502L16.4183 26.699L15.8283 26.7519Z" fill="#D8D8D8"/>
<path d="M18.7085 23.7229L19.5758 25.725L19.0323 25.9604L18.165 23.9584L18.7085 23.7229Z" fill="#D8D8D8"/>
<path d="M21.8764 24.1631L20.3813 22.574L21.5266 21.4965L21.8536 21.8441L21.1398 22.5157L21.3967 22.7888L22.0516 22.1727L22.3787 22.5203L21.7238 23.1364L21.9808 23.4096L22.6915 22.7409L23.0185 23.0885L21.8764 24.1631Z" fill="#D8D8D8"/>
<path d="M24.5841 20.3592L24.2242 21.1177L22.2531 20.1822L22.6093 19.4315C22.7056 19.2287 22.8282 19.0723 22.9771 18.9622C23.1257 18.8511 23.2929 18.7905 23.4785 18.7803C23.6638 18.7692 23.8591 18.8124 24.0645 18.9098C24.2698 19.0073 24.4272 19.1311 24.5367 19.2813C24.6456 19.4313 24.7046 19.5984 24.7138 19.7828C24.7223 19.9669 24.6791 20.1591 24.5841 20.3592ZM24.0239 20.3669L24.1207 20.1629C24.167 20.0654 24.1907 19.9748 24.1918 19.8912C24.1933 19.807 24.164 19.7287 24.1041 19.6562C24.0445 19.5831 23.946 19.5139 23.8087 19.4488C23.6714 19.3836 23.5554 19.3514 23.4607 19.352C23.3664 19.3521 23.2866 19.3802 23.2213 19.4365C23.1564 19.4922 23.0996 19.5714 23.0508 19.674L22.9613 19.8627L24.0239 20.3669Z" fill="#D8D8D8"/>
<path d="M4.79847 16.5952C4.79847 16.5014 4.83162 16.4209 4.8979 16.3537C4.96514 16.2874 5.04563 16.2543 5.13938 16.2543C5.23219 16.2543 5.31173 16.2874 5.37802 16.3537C5.44431 16.4209 5.47745 16.5014 5.47745 16.5952C5.47745 16.6861 5.44431 16.7656 5.37802 16.8338C5.31173 16.902 5.23219 16.9361 5.13938 16.9361C5.07688 16.9361 5.01959 16.92 4.96751 16.8878C4.91637 16.8565 4.87518 16.8153 4.84393 16.7642C4.81362 16.7131 4.79847 16.6567 4.79847 16.5952Z" fill="#D8D8D8"/>
<path d="M25.0668 16.8374C25.0668 16.9312 25.0336 17.0117 24.9673 17.0789C24.9001 17.1452 24.8196 17.1784 24.7259 17.1784C24.633 17.1784 24.5535 17.1452 24.4872 17.0789C24.4209 17.0117 24.3878 16.9312 24.3878 16.8374C24.3878 16.7465 24.4209 16.667 24.4872 16.5988C24.5535 16.5306 24.633 16.4965 24.7259 16.4965C24.7884 16.4965 24.8456 16.5126 24.8977 16.5448C24.9489 16.5761 24.9901 16.6173 25.0213 16.6684C25.0516 16.7195 25.0668 16.7759 25.0668 16.8374Z" fill="#D8D8D8"/>
</svg>
