<svg width="32" height="26" viewBox="0 0 32 26" fill="none" xmlns="http://www.w3.org/2000/svg">
<path d="M12.4667 9.9335C12.4667 6.86683 13.8667 4.1335 16.1333 2.40016C14.4667 1.06683 12.4 0.333496 10.1333 0.333496C4.80001 0.333496 0.466675 4.66683 0.466675 9.9335C0.466675 15.2002 4.80001 19.6002 10.1333 19.6002C12.4 19.6002 14.4667 18.8002 16.1333 17.5335C13.8667 15.7335 12.4667 13.0002 12.4667 9.9335Z" fill="#D8D8D8"/>
<path d="M12.4667 9.93372C12.4667 13.0004 13.8667 15.7337 16.1333 17.4671C18.3333 15.7337 19.8 13.0004 19.8 9.93372C19.8 6.86706 18.4 4.13372 16.1333 2.40039C13.8667 4.13372 12.4667 6.86706 12.4667 9.93372Z" fill="#F3F3F3"/>
<path d="M31 15.2667V14.9334H30.8667V14.8667H31.2V14.9334H31.0667V15.2667H31ZM31.6667 15.2667V15L31.6 15.2667H31.4667L31.4 15V15.2667H31.3334V14.8667H31.4667L31.6 15.1334L31.7334 14.8667H31.8667V15.2667H31.6667Z" fill="#D8D8D8"/>
<path d="M22.1334 0.333496C19.8667 0.333496 17.8 1.1335 16.1334 2.40016C18.3334 4.1335 19.8 6.86683 19.8 9.9335C19.8 13.0002 18.4 15.7335 16.1334 17.4668C17.8 18.8002 19.8667 19.5335 22.1334 19.5335C27.4667 19.5335 31.8 15.2002 31.8 9.86683C31.8 4.5335 27.4 0.333496 22.1334 0.333496Z" fill="white"/>
<path d="M4.2849 22.4589C4.19373 22.3677 4.07217 22.2766 3.92023 22.2158C3.76828 22.155 3.61633 22.1246 3.46439 22.1246C3.37322 22.1246 3.28205 22.1246 3.19088 22.155C3.09971 22.1854 3.00855 22.1854 2.91738 22.2462C2.82621 22.2766 2.73504 22.3374 2.64387 22.3981C2.55271 22.4589 2.49193 22.5501 2.43115 22.6412C2.33998 22.4893 2.18803 22.3374 2.03609 22.2462C1.85375 22.155 1.67141 22.0942 1.45869 22.0942C1.39791 22.0942 1.30674 22.0942 1.24596 22.1246C1.1548 22.1246 1.09402 22.155 1.00285 22.1854C0.911681 22.2158 0.850902 22.2766 0.790123 22.307C0.729345 22.3677 0.668566 22.4285 0.607787 22.5197V22.155H0V25.0724H0.607787V23.4618C0.607787 23.3402 0.638177 23.2186 0.668566 23.1275C0.698955 23.0363 0.759734 22.9451 0.820513 22.8844C0.881291 22.8236 0.97246 22.7628 1.06363 22.7324C1.12441 22.7324 1.21557 22.7324 1.33713 22.7324C1.54986 22.7324 1.7018 22.7932 1.82336 22.9451C1.94492 23.0667 2.0057 23.2794 2.0057 23.5225V25.1332H2.61349V23.5225C2.61349 23.401 2.64387 23.2794 2.67426 23.1883C2.70465 23.0971 2.76543 23.0059 2.82621 22.9451C2.88699 22.8844 2.97816 22.8236 3.06933 22.7932C3.16049 22.7628 3.25166 22.7324 3.34283 22.7324C3.55556 22.7324 3.7075 22.7932 3.82906 22.9451C3.95062 23.0667 4.0114 23.2794 4.0114 23.5225V25.1332H4.61918V23.3098C4.61918 23.1275 4.58879 22.9755 4.52802 22.854C4.46724 22.6716 4.37607 22.5501 4.2849 22.4589Z" fill="#D8D8D8"/>
<path d="M7.53657 22.55C7.4454 22.4284 7.32384 22.3068 7.1719 22.2461C7.01995 22.1549 6.83761 22.1245 6.62489 22.1245C6.41216 22.1245 6.22983 22.1549 6.04749 22.2461C5.86515 22.3372 5.71321 22.4284 5.59165 22.55C5.47009 22.6715 5.34854 22.8539 5.28776 23.0362C5.22698 23.2185 5.1662 23.4313 5.1662 23.644C5.1662 23.8567 5.19659 24.0694 5.28776 24.2518C5.34854 24.4341 5.47009 24.586 5.59165 24.738C5.71321 24.8596 5.86515 24.9811 6.04749 25.0419C6.22983 25.1331 6.41216 25.1634 6.62489 25.1634C6.83761 25.1634 7.01995 25.1331 7.1719 25.0419C7.32384 24.9507 7.4454 24.8596 7.53657 24.738V25.1027H8.17475V22.1853H7.53657V22.55ZM7.50618 24.039C7.47579 24.1606 7.41501 24.2518 7.32384 24.3429C7.23268 24.4341 7.14151 24.4949 7.05034 24.5253C6.92878 24.586 6.83761 24.586 6.68567 24.586C6.53372 24.586 6.41216 24.5557 6.32099 24.5253C6.19944 24.4645 6.10827 24.4037 6.04749 24.3125C5.98671 24.2214 5.92593 24.1302 5.86515 24.0087C5.83476 23.8871 5.80438 23.7655 5.80438 23.644C5.80438 23.5224 5.83476 23.4009 5.86515 23.2793C5.89554 23.1577 5.95632 23.0666 6.04749 22.9754C6.10827 22.8842 6.19944 22.8235 6.32099 22.7627C6.44255 22.7019 6.56411 22.7019 6.68567 22.7019C6.80722 22.7019 6.92878 22.7323 7.05034 22.7627C7.1719 22.8235 7.26306 22.8842 7.32384 22.945C7.41501 23.0362 7.47579 23.1274 7.50618 23.2489C7.53657 23.3705 7.56696 23.492 7.56696 23.6136C7.59735 23.7959 7.56696 23.9175 7.50618 24.039Z" fill="#D8D8D8"/>
<path d="M11.0921 23.6439C10.9098 23.4919 10.6667 23.4007 10.3324 23.3704L10.0285 23.3096C9.96772 23.3096 9.90694 23.2792 9.84616 23.2792C9.78538 23.2792 9.7246 23.2488 9.69421 23.2184C9.66382 23.188 9.60304 23.1576 9.60304 23.1272C9.57265 23.0969 9.57266 23.0361 9.57266 23.0057C9.57266 22.9145 9.63343 22.8234 9.7246 22.7626C9.81577 22.7018 9.96772 22.6714 10.1197 22.6714C10.2108 22.6714 10.302 22.6714 10.3932 22.7018C10.4843 22.7322 10.5755 22.7322 10.6363 22.7626C10.7275 22.793 10.7882 22.8234 10.849 22.8537C10.9098 22.8841 10.9706 22.9145 11.001 22.9449L11.2745 22.4587C11.1225 22.3675 10.9402 22.2763 10.7275 22.246C10.5147 22.1852 10.302 22.1548 10.0893 22.1548C9.90694 22.1548 9.7246 22.1852 9.57266 22.2156C9.42071 22.246 9.29915 22.3067 9.20798 22.3979C9.11681 22.4891 9.02565 22.5802 8.96487 22.7018C8.90409 22.8234 8.8737 22.9449 8.8737 23.0969C8.8737 23.34 8.96487 23.5223 9.11681 23.6743C9.29915 23.8262 9.54227 23.9174 9.84616 23.9478L10.1501 23.9781C10.3324 24.0085 10.4539 24.0389 10.5451 24.0997C10.6363 24.1605 10.6667 24.2213 10.6667 24.3124C10.6667 24.434 10.6059 24.4948 10.4843 24.5859C10.3628 24.6467 10.2108 24.6771 9.99811 24.6771C9.87655 24.6771 9.78538 24.6771 9.66382 24.6467C9.63343 24.5859 9.54227 24.5555 9.48149 24.5555C9.39032 24.5252 9.32954 24.4948 9.26876 24.4644C9.20798 24.434 9.1472 24.4036 9.08643 24.3428L8.78253 24.829C8.8737 24.9202 8.99526 24.981 9.11681 25.0114C9.23837 25.0418 9.35993 25.1026 9.4511 25.1329C9.57265 25.1633 9.66382 25.1937 9.75499 25.1937C9.84616 25.1937 9.93733 25.1937 10.0285 25.1937C10.2412 25.1937 10.4236 25.1633 10.5755 25.1329C10.7275 25.0722 10.8794 25.0114 11.001 24.9506C11.1225 24.8594 11.2137 24.7683 11.2745 24.6467C11.3352 24.5252 11.3656 24.4036 11.3656 24.2517C11.3656 23.9781 11.2745 23.7958 11.0921 23.6439Z" fill="#D8D8D8"/>
<path d="M17.0484 22.55C16.9268 22.4284 16.7749 22.3068 16.6229 22.2461C16.4406 22.1853 16.2583 22.1245 16.0759 22.1245C15.8632 22.1245 15.6505 22.1549 15.4985 22.2461C15.3162 22.3068 15.1643 22.4284 15.0427 22.55C14.9211 22.6715 14.83 22.8539 14.7388 23.0362C14.678 23.2185 14.6172 23.4313 14.6172 23.6744C14.6172 23.9175 14.6476 24.1302 14.7388 24.3125C14.7996 24.4949 14.9211 24.6772 15.0427 24.7988C15.1643 24.9203 15.3466 25.0419 15.5289 25.1027C15.7113 25.1634 15.924 25.2242 16.1367 25.2242C16.3494 25.2242 16.5622 25.1938 16.7749 25.1331C16.9876 25.0723 17.17 24.9507 17.3523 24.7988L17.0484 24.3429C16.9268 24.4341 16.8053 24.5253 16.6533 24.5557C16.5014 24.6164 16.3494 24.6468 16.2279 24.6468C16.1367 24.6468 16.0152 24.6468 15.924 24.6164C15.8328 24.586 15.7417 24.5557 15.6505 24.4949C15.5593 24.4341 15.4985 24.3733 15.4378 24.2518C15.377 24.1606 15.3466 24.039 15.3162 23.9175H17.4738C17.4738 23.8871 17.4738 23.8567 17.4738 23.7959C17.4738 23.7655 17.4738 23.7048 17.4738 23.6744C17.4738 23.4616 17.4435 23.2489 17.3827 23.0666C17.2611 22.8539 17.17 22.6715 17.0484 22.55ZM15.2858 23.4009C15.3162 23.3097 15.3162 23.1881 15.377 23.097C15.4074 23.0058 15.4682 22.945 15.5289 22.8539C15.5897 22.7931 15.6809 22.7323 15.772 22.7019C15.8632 22.6715 15.9544 22.6411 16.0759 22.6411C16.2887 22.6411 16.4406 22.7019 16.5622 22.8235C16.6837 22.945 16.7749 23.1274 16.8053 23.3401H15.2858V23.4009Z" fill="#D8D8D8"/>
<path d="M25.4967 22.55C25.4055 22.4284 25.2839 22.3068 25.132 22.2461C24.98 22.1549 24.7977 22.1245 24.585 22.1245C24.3722 22.1245 24.1899 22.1549 24.0076 22.2461C23.8252 22.3372 23.6733 22.4284 23.5517 22.55C23.4302 22.6715 23.3086 22.8539 23.2478 23.0362C23.1871 23.2185 23.1263 23.4313 23.1263 23.644C23.1263 23.8567 23.1567 24.0694 23.2478 24.2518C23.3086 24.4341 23.4302 24.586 23.5517 24.738C23.6733 24.8596 23.8252 24.9811 24.0076 25.0419C24.1899 25.1331 24.3722 25.1634 24.585 25.1634C24.7977 25.1634 24.98 25.1331 25.132 25.0419C25.2839 24.9507 25.4055 24.8596 25.4967 24.738V25.1027H26.1348V22.1853H25.4967V22.55ZM25.4663 24.039C25.4359 24.1606 25.3751 24.2518 25.2839 24.3429C25.1928 24.4341 25.1016 24.4949 25.0104 24.5253C24.8889 24.586 24.7977 24.586 24.6457 24.586C24.4938 24.586 24.3722 24.5557 24.2811 24.5253C24.1899 24.4949 24.0684 24.4037 24.0076 24.3125C23.9468 24.2214 23.886 24.1302 23.8252 24.0087C23.7948 23.8871 23.7645 23.7655 23.7645 23.644C23.7645 23.5224 23.7948 23.4009 23.8252 23.2793C23.8556 23.1577 23.9164 23.0666 24.0076 22.9754C24.0684 22.8842 24.1595 22.8235 24.2811 22.7627C24.4026 22.7019 24.5242 22.7019 24.6457 22.7019C24.7673 22.7019 24.8889 22.7323 25.0104 22.7627C25.132 22.8235 25.2231 22.8842 25.2839 22.945C25.3751 23.0362 25.4359 23.1274 25.4663 23.2489C25.4967 23.3705 25.527 23.492 25.527 23.6136C25.527 23.7959 25.527 23.9175 25.4663 24.039Z" fill="#D8D8D8"/>
<path d="M13.8272 24.525C13.736 24.5554 13.6145 24.5858 13.5233 24.5858C13.4625 24.5858 13.4017 24.5858 13.3409 24.5554C13.2802 24.525 13.2498 24.4946 13.189 24.4642C13.1586 24.4338 13.1282 24.373 13.0978 24.2819C13.0674 24.2211 13.0674 24.1299 13.0674 24.0388V22.7624H14.1007V22.185H13.0674V21.3037H12.4293V22.185H11.8519V22.7624H12.4293V24.0388C12.4293 24.4338 12.5204 24.7073 12.7028 24.8897C12.8851 25.072 13.1282 25.1632 13.4625 25.1632C13.6448 25.1632 13.8272 25.1328 13.9487 25.072C14.0399 25.0416 14.1311 24.9808 14.2222 24.9504L14.0095 24.4034C13.9487 24.4642 13.888 24.4946 13.8272 24.525Z" fill="#D8D8D8"/>
<path d="M19.5708 22.1245C19.3884 22.1245 19.2365 22.1549 19.0845 22.2157C18.9326 22.2765 18.811 22.4284 18.7199 22.5804V22.1853H18.1425V25.1027H18.7199V23.492C18.7199 23.3705 18.7502 23.2489 18.7806 23.1578C18.811 23.0666 18.8718 22.9754 18.9326 22.9146C18.9934 22.8539 19.0541 22.7931 19.1453 22.7627C19.2365 22.7323 19.3276 22.7019 19.4188 22.7019C19.51 22.7019 19.5708 22.7019 19.6619 22.7323C19.6923 22.7323 19.7531 22.7627 19.7835 22.7627L19.9658 22.1549C19.905 22.1245 19.8747 22.1245 19.8139 22.1245C19.7531 22.1245 19.6619 22.1245 19.5708 22.1245Z" fill="#D8D8D8"/>
<path d="M28.4141 22.1245C28.2317 22.1245 28.0798 22.1549 27.9278 22.2157C27.7759 22.2765 27.6543 22.4284 27.5632 22.5804V22.1853H26.9858V25.1027H27.5632V23.492C27.5632 23.3705 27.5936 23.2489 27.624 23.1578C27.6543 23.0666 27.7151 22.9754 27.7759 22.9146C27.8367 22.8539 27.8975 22.7931 27.9886 22.7627C28.0798 22.7323 28.171 22.7019 28.2621 22.7019C28.3533 22.7019 28.4141 22.7019 28.5052 22.7323C28.5356 22.7323 28.5964 22.7627 28.6268 22.7627L28.8091 22.1549C28.7484 22.1245 28.718 22.1245 28.6572 22.1245C28.5964 22.1245 28.5052 22.1245 28.4141 22.1245Z" fill="#D8D8D8"/>
<path d="M31.3618 21V22.5499C31.2707 22.4283 31.1491 22.3067 30.9972 22.246C30.8452 22.1548 30.6629 22.1244 30.4501 22.1244C30.2374 22.1244 30.0551 22.1548 29.8727 22.246C29.6904 22.3371 29.5385 22.4283 29.4169 22.5499C29.2953 22.6714 29.1738 22.8538 29.113 23.0361C29.0522 23.2184 28.9915 23.4311 28.9915 23.6439C28.9915 23.8566 29.0218 24.0693 29.113 24.2517C29.1738 24.434 29.2953 24.5859 29.4169 24.7379C29.5385 24.8594 29.6904 24.981 29.8727 25.0418C30.0551 25.133 30.2374 25.1633 30.4501 25.1633C30.6629 25.1633 30.8452 25.133 30.9972 25.0418C31.1491 24.9506 31.2707 24.8594 31.3618 24.7379V25.1026H32V21H31.3618ZM31.3618 24.0389C31.3314 24.1605 31.2707 24.2517 31.1795 24.3428C31.0883 24.434 30.9972 24.4948 30.906 24.5252C30.7844 24.5859 30.6933 24.5859 30.5413 24.5859C30.3894 24.5859 30.2678 24.5556 30.1766 24.5252C30.0551 24.4644 29.9639 24.4036 29.9031 24.3124C29.8424 24.2213 29.7816 24.1301 29.7208 24.0085C29.6904 23.887 29.66 23.7654 29.66 23.6439C29.66 23.5223 29.6904 23.4008 29.7208 23.2792C29.7512 23.1576 29.812 23.0665 29.9031 22.9753C29.9639 22.8841 30.0551 22.8234 30.1766 22.7626C30.2982 22.7018 30.4198 22.7018 30.5413 22.7018C30.6629 22.7018 30.7844 22.7322 30.906 22.7626C31.0275 22.8234 31.1187 22.8841 31.1795 22.9449C31.2707 23.0361 31.3314 23.1273 31.3618 23.2488C31.3922 23.3704 31.4226 23.4919 31.4226 23.6135C31.4226 23.7958 31.3922 23.9174 31.3618 24.0389Z" fill="#D8D8D8"/>
<path d="M21.0902 22.9754C21.1814 22.8842 21.2725 22.8235 21.3941 22.7931C21.5157 22.7323 21.6372 22.7323 21.7588 22.7323C21.9107 22.7323 22.0323 22.7627 22.1538 22.7931C22.2754 22.8235 22.3666 22.8842 22.4577 22.9754L22.7616 22.4588C22.6401 22.3676 22.5185 22.3068 22.3666 22.2461C22.1842 22.1549 21.9715 22.1245 21.7284 22.1245C21.5157 22.1245 21.3029 22.1549 21.0902 22.2461C20.9079 22.3372 20.7255 22.4284 20.604 22.5804C20.452 22.7323 20.3609 22.8842 20.2697 23.0666C20.1785 23.2489 20.1481 23.4616 20.1481 23.6744C20.1481 23.8871 20.1785 24.0998 20.2697 24.2822C20.3609 24.4645 20.452 24.6164 20.604 24.7684C20.7559 24.9203 20.9079 25.0115 21.0902 25.1027C21.2725 25.1938 21.4853 25.2242 21.7284 25.2242C21.9411 25.2242 22.1538 25.1938 22.3666 25.1027C22.5185 25.0419 22.6401 24.9811 22.7616 24.8899L22.4577 24.3733C22.3666 24.4645 22.2754 24.5253 22.1538 24.5557C22.0323 24.6164 21.9107 24.6164 21.7588 24.6164C21.6372 24.6164 21.5157 24.586 21.3941 24.5557C21.2725 24.5253 21.1814 24.4341 21.0902 24.3733C20.999 24.2822 20.9383 24.191 20.9079 24.0694C20.8471 23.9479 20.8471 23.8263 20.8471 23.7048C20.8471 23.5528 20.8775 23.4313 20.9079 23.3401C20.9383 23.1578 20.999 23.0666 21.0902 22.9754Z" fill="#D8D8D8"/>
</svg>
