<svg width="20" height="22" viewBox="0 0 20 22" fill="none" xmlns="http://www.w3.org/2000/svg">
<rect x="5" y="4" width="15" height="17" rx="7.5" fill="#008556" fill-opacity="0.15"/>
<path d="M19 1V21H17V14H13V7C13 5.4087 13.6321 3.88258 14.7574 2.75736C15.8826 1.63214 17.4087 1 19 1V1ZM17 3.53C16.17 4 15 5.17 15 7V12H17V3.53V3.53ZM7 12.9V21H5V12.9C3.87081 12.6691 2.85599 12.0554 2.12714 11.1625C1.3983 10.2697 1.00014 9.15255 1 8V2H3V9H5V2H7V9H9V2H11V8C10.9999 9.15255 10.6017 10.2697 9.87286 11.1625C9.14401 12.0554 8.12919 12.6691 7 12.9V12.9Z" fill="#008556"/>
</svg>
