<svg width="29" height="29" viewBox="0 0 29 29" fill="none" xmlns="http://www.w3.org/2000/svg">
<rect x="5" y="3" width="15" height="17" rx="4" fill="#008556" fill-opacity="0.15"/>
<g clip-path="url(#clip0_579_743)">
<path d="M19.8176 17.7203L12.754 21.7984C12.6503 21.8577 12.5359 21.8961 12.4173 21.9112C12.2987 21.9263 12.1783 21.9179 12.063 21.8865C11.9477 21.8551 11.8397 21.8012 11.7452 21.728C11.6507 21.6549 11.5715 21.5638 11.5122 21.46L4.21827 8.82651C4.14135 8.69413 4.0989 8.54455 4.09483 8.39149C4.09075 8.23844 4.12517 8.08681 4.19492 7.95051L5.94207 2.87478C6.02074 2.7213 6.14183 2.59365 6.29095 2.507C6.44007 2.42035 6.61093 2.37835 6.78323 2.386L12.1012 3.38635C12.2553 3.39341 12.4051 3.43929 12.5367 3.51972C12.6683 3.60016 12.7774 3.71255 12.854 3.84646L20.1454 16.4756C20.2056 16.5789 20.2449 16.693 20.2611 16.8114C20.2772 16.9298 20.2698 17.0503 20.2394 17.1659C20.2089 17.2815 20.156 17.3899 20.0836 17.485C20.0112 17.5802 19.9208 17.6601 19.8176 17.7203Z" stroke="#008556" stroke-width="1.5" stroke-miterlimit="10"/>
<path d="M9.03565 7.20192C9.68583 6.82654 9.9086 5.99516 9.53322 5.34498C9.15784 4.6948 8.32646 4.47203 7.67628 4.84741C7.0261 5.22279 6.80333 6.05417 7.17871 6.70435C7.55409 7.35453 8.38547 7.5773 9.03565 7.20192Z" stroke="#008556" stroke-width="1.5" stroke-miterlimit="10"/>
<path d="M11.7705 15.5642L11.7987 9.26929" stroke="#008556" stroke-width="1.5" stroke-miterlimit="10" stroke-linecap="round"/>
<path d="M9.79167 13.0438C10.2251 12.7935 10.3736 12.2393 10.1234 11.8058C9.87313 11.3724 9.31887 11.2239 8.88542 11.4741C8.45197 11.7244 8.30346 12.2786 8.55371 12.7121C8.80396 13.1455 9.35822 13.294 9.79167 13.0438Z" stroke="#008556" stroke-width="1.5" stroke-miterlimit="10" stroke-linecap="round"/>
<path d="M14.6833 13.3592C15.1167 13.109 15.2652 12.5547 15.015 12.1213C14.7647 11.6878 14.2105 11.5393 13.777 11.7896C13.3436 12.0398 13.1951 12.5941 13.4453 13.0275C13.6956 13.461 14.2498 13.6095 14.6833 13.3592Z" stroke="#008556" stroke-width="1.5" stroke-miterlimit="10" stroke-linecap="round"/>
</g>
<defs>
<clipPath id="clip0_579_743">
<rect width="29" height="29" fill="white"/>
</clipPath>
</defs>
</svg>
